HIERARCHY
ROOT Hips
{
	OFFSET -3.958830 18.904000 13.208200
	CHANNELS 6 Xposition Yposition Zposition Zrotation Yrotation Xrotation 
	JOINT LHipJoint
	{
		OFFSET 0.000000 0.000000 0.000000
		CHANNELS 3 Zrotation Yrotation Xrotation
		JOINT LeftUpLeg
		{
			OFFSET 1.800000 -1.400000 0.085000
			CHANNELS 3 Zrotation Yrotation Xrotation
			JOINT LeftLeg
			{
				OFFSET 2.215000 -6.000000 0.000000
				CHANNELS 3 Zrotation Yrotation Xrotation
				JOINT LeftFoot
				{
					OFFSET 2.500000 -6.900000 0.000000
					CHANNELS 3 Zrotation Yrotation Xrotation
					JOINT LeftToeBase
					{
						OFFSET 0.200000 -0.500000 1.950000
						CHANNELS 3 Zrotation Yrotation Xrotation
						End Site
						{
							OFFSET 0.000000 0.000000 0.000000
						}
					}
				}
			}
		}
	}
	JOINT RHipJoint
	{
		OFFSET 0.000000 0.000000 0.000000
		CHANNELS 3 Zrotation Yrotation Xrotation
		JOINT RightUpLeg
		{
			OFFSET -1.800000 -1.400000 0.085000
			CHANNELS 3 Zrotation Yrotation Xrotation
			JOINT RightLeg
			{
				OFFSET -2.215000 -6.000000 0.000000
				CHANNELS 3 Zrotation Yrotation Xrotation
				JOINT RightFoot
				{
					OFFSET -2.500000 -6.900000 0.000000
					CHANNELS 3 Zrotation Yrotation Xrotation
					JOINT RightToeBase
					{
						OFFSET -0.200000 -0.500000 1.950000
						CHANNELS 3 Zrotation Yrotation Xrotation
						End Site
						{
							OFFSET 0.000000 0.000000 0.000000
						}
					}
				}
			}
		}
	}
	JOINT LowerBack
	{
		OFFSET 0.000000 0.000000 0.000000
		CHANNELS 3 Zrotation Yrotation Xrotation
		JOINT Spine
		{
			OFFSET -0.087000 1.940000 -0.288900
			CHANNELS 3 Zrotation Yrotation Xrotation
			JOINT Spine1
			{
				OFFSET 0.000000 1.950000 0.060000
				CHANNELS 3 Zrotation Yrotation Xrotation
				JOINT Neck
				{
					OFFSET 0.000000 0.000000 0.000000
					CHANNELS 3 Zrotation Yrotation Xrotation
					JOINT Neck1
					{
						OFFSET 0.000000 1.600000 0.340000
						CHANNELS 3 Zrotation Yrotation Xrotation
						JOINT Head
						{
							OFFSET 0.000000 1.667000 -0.240000
							CHANNELS 3 Zrotation Yrotation Xrotation
							End Site
							{
								OFFSET 0.000000 0.000000 0.000000
							}
						}
					}
				}
				JOINT LeftShoulder
				{
					OFFSET 0.000000 0.000000 0.000000
					CHANNELS 3 Zrotation Yrotation Xrotation
					JOINT LeftArm
					{
						OFFSET 2.700000 1.550000 -0.730000
						CHANNELS 3 Zrotation Yrotation Xrotation
						JOINT LeftForeArm
						{
							OFFSET 5.450000 0.000000 0.000000
							CHANNELS 3 Zrotation Yrotation Xrotation
							JOINT LeftHand
							{
								OFFSET 3.450000 0.000000 0.000000
								CHANNELS 3 Zrotation Yrotation Xrotation
								JOINT LeftHandIndex1
								{
									OFFSET 0.750000 0.000000 0.000000
									CHANNELS 3 Zrotation Yrotation Xrotation
									End Site
									{
										OFFSET 0.000000 0.000000 0.000000
									}
								}
							}
						}
					}
				}
				JOINT RightShoulder
				{
					OFFSET 0.000000 0.000000 0.000000
					CHANNELS 3 Zrotation Yrotation Xrotation
					JOINT RightArm
					{
						OFFSET -2.700000 1.550000 -0.730000
						CHANNELS 3 Zrotation Yrotation Xrotation
						JOINT RightForeArm
						{
							OFFSET -5.450000 0.000000 0.000000
							CHANNELS 3 Zrotation Yrotation Xrotation
							JOINT RightHand
							{
								OFFSET -3.450000 0.000000 0.000000
								CHANNELS 3 Zrotation Yrotation Xrotation
								JOINT RightHandIndex1
								{
									OFFSET -0.750000 0.000000 0.000000
									CHANNELS 3 Zrotation Yrotation Xrotation
									End Site
									{
										OFFSET 0.000000 0.000000 0.000000
									}
								}
							}
						}
					}
				}
			}
		}
	}
}
MOTION
Frames: 6
Frame Time: 0.016667
-2.452740 17.170000 -2.337630 -14.238911 -56.403255 2.088078 -15.060643 13.680398 3.826989 -6.344879 -3.592204 -26.307879 2.112141 3.545832 18.810718 -0.342314 2.327147 3.662492 0.823670 0.656410 0.674020 18.182055 -10.968285 2.988858 1.244357 5.127586 -2.297373 0.194673 -6.463327 46.376950 -1.244424 -7.103531 2.121335 0.225480 -0.209560 0.125380 -3.409681 -2.414812 -7.685217 7.908349 0.696016 45.556747 -13.376747 4.514024 -10.390918 8.177128 -11.418114 -6.273608 -23.068980 22.676285 35.218560 -8.801310 16.889480 -14.819980 -11.740823 16.934139 -5.374882 -35.564936 -0.610604 -5.123579 -5.862000 -31.616759 1.357349 -3.180373 3.303858 0.499340 -0.199410 0.335360 0.374130 -6.113345 -3.231135 2.011548 29.172607 14.776873 -5.976357 -18.339977 66.590803 -9.719136 1.978574 -1.873666 0.069980 0.022950 -0.512960 -0.109150 
-2.316080 17.229780 -2.488370 -13.326426 -56.889078 0.149201 -15.105596 13.769295 3.849045 -5.801676 -3.857044 -27.883986 3.241202 4.273047 26.724867 -0.194391 3.339491 3.265846 0.870510 0.742810 0.720150 18.156036 -10.904356 2.907608 1.675830 4.813072 -4.929359 -1.966744 -5.300336 45.760469 -1.180004 -6.758942 2.228185 0.268280 -0.222100 0.170460 -3.252622 -2.678199 -7.645043 5.705062 1.591501 47.574585 -10.148119 5.264586 -6.842388 6.422406 -10.596793 -5.467892 -21.237768 20.742606 34.171512 -11.887000 16.694020 -17.961340 -10.926923 14.993347 -5.357669 -34.832192 -6.935278 -3.668720 -0.157449 -33.497260 0.158601 -3.235715 3.315175 0.460720 -0.164320 0.380450 0.404200 -3.694556 -2.462060 1.143250 32.319165 16.490137 -6.400093 -12.331289 65.269722 -6.760621 1.992046 -1.874458 0.106110 0.028040 -0.551600 -0.093670 
-2.201380 17.262130 -2.621740 -11.441690 -57.077785 -2.552304 -15.152900 13.691379 4.016617 -3.796943 -4.756666 -29.261804 1.183414 6.542749 36.637242 0.101516 5.224500 2.561959 0.922070 0.827600 0.778250 18.144795 -10.845711 2.703681 0.962496 4.222354 -6.921598 -3.211765 -4.630631 43.623769 -1.091297 -6.281336 2.364189 0.311300 -0.254830 0.198260 -3.163016 -2.818582 -7.654204 3.242872 2.279225 48.991731 -7.222565 5.370122 -2.554580 4.266399 -9.737284 -5.672136 -19.931361 19.522043 33.204145 -13.613360 16.793760 -20.567750 -10.166475 10.850909 -3.947238 -31.906771 -10.381949 -3.514630 8.103964 -36.150560 -2.270820 -3.245119 3.309354 0.448690 -0.156630 0.433470 0.421410 -0.144252 0.296174 0.844209 33.742232 16.761711 -7.833289 -7.487883 64.272865 -4.691717 2.015482 -1.826809 0.133120 0.029760 -0.592010 -0.091470 
-2.126290 17.243570 -2.720100 -9.019747 -57.817972 -4.468416 -15.250071 13.299586 4.486910 -1.099282 -6.533753 -32.239116 -2.139703 10.578807 48.428778 0.608265 7.960219 1.564677 0.964130 0.898110 0.841060 18.141085 -10.703423 2.376062 0.072663 3.563771 -9.233882 -5.469713 -3.528867 41.007403 -0.987289 -5.685368 2.509265 0.329990 -0.342600 0.237640 -3.087465 -2.772125 -7.810888 1.019840 3.094797 47.381812 -5.120758 5.454294 3.148658 2.444114 -8.438500 -7.083991 -18.180073 18.375259 34.357832 -15.633630 17.384450 -22.820240 -8.793809 4.920860 -1.616674 -28.224132 -11.875122 -4.222799 19.089492 -34.165988 -5.475829 -3.252428 3.254690 0.453760 -0.172080 0.499520 0.390800 2.243110 4.644991 1.895936 36.679540 15.638661 -10.472394 -3.355429 65.193355 -3.818917 2.020661 -1.801803 0.185760 -0.024380 -0.606320 -0.113060 
-2.037430 17.193140 -2.821500 -5.573940 -57.721479 -7.462591 -15.365382 12.893119 5.051499 1.370778 -8.837690 -34.760247 -5.239912 15.619325 59.833122 1.220176 10.928646 0.644149 0.990910 0.920100 0.893920 18.146717 -10.425649 1.943836 -2.401701 3.252620 -11.648901 -6.267277 -3.435777 41.085901 -0.951312 -5.573752 2.510838 0.359310 -0.361320 0.252870 -2.850468 -3.058474 -8.036829 -2.134222 4.342418 47.178345 -1.968005 5.401015 6.114632 -0.006234 -7.531895 -7.373259 -16.929814 17.161350 34.270192 -16.265700 17.386250 -24.424060 -7.140190 1.586124 -0.442189 -22.127903 -13.909685 -4.338086 27.786341 -32.385834 -7.795699 -3.267506 3.196347 0.483540 -0.164110 0.520230 0.377260 5.421198 7.096570 2.384146 37.135234 14.583077 -11.500238 2.139510 66.328046 -1.414874 2.022615 -1.819073 0.169330 -0.016670 -0.611910 -0.146490 
-1.938440 17.108120 -2.903980 -4.067163 -56.642309 -8.317263 -15.501706 12.325578 5.721873 5.323861 -11.481468 -38.321862 -9.182688 22.066096 70.212186 1.918410 13.860526 -0.171292 1.001720 0.939140 0.939510 18.154312 -10.051634 1.585756 -3.944666 2.914353 -13.684823 -6.410402 -4.005945 43.109835 -0.993868 -5.819732 2.401498 0.377670 -0.404980 0.248870 -2.672038 -3.257236 -8.362787 -2.983578 4.399691 46.407941 -0.095224 5.116294 8.753682 -1.325916 -6.554895 -7.794219 -15.782479 15.388613 35.662028 -17.656550 17.200160 -25.340680 -6.341555 -1.782387 -0.133447 -14.839896 -16.675460 -4.680717 30.603848 -30.437337 -8.242004 -3.270147 3.152459 0.498420 -0.166720 0.546050 0.354780 7.132146 9.264263 3.651496 38.185803 11.915862 -12.986839 8.831229 69.490494 1.520931 2.030617 -1.885593 0.162230 -0.018850 -0.619990 -0.176300 
